PathFileType	4	(X/Y/Z)	Patient4_TMGait_0pt7_01_right_41.trc.trc
DataRate	CameraRate	NumFrames	NumMarkers	Units	OrigDataRate	OrigDataStartFrame	OrigNumFrames
85.365853658537	85.365853658537	4	33	mm	85.365853658537	53	       141
Frame#	Time	Sacral			L.Shoulder			Chest			R.Shoulder			Neck			R.ASIS			L.ASIS			R.Thigh.Superior			R.Thigh.Lateral			R.Thigh.Inferior			R.Patella			L.Thigh.Superior			L.Thigh.Lateral			L.Thigh.Inferior			L.Patella			L.Shank.Superior			L.Shank.Lateral			L.Shank.Inferior			R.Shank.Superior			R.Shank.Lateral			R.Shank.Inferior			R.Heel			R.Midfoot.Superior			R.Midfoot.Lateral			R.Toe			L.Heel			L.Midfoot.Lateral			L.Midfoot.Superior			L.Toe			L.Elbow			L.Wrist			R.Elbow			R.Wrist			
		X1	Y1	Z1	X2	Y2	Z2	X3	Y3	Z3	X4	Y4	Z4	X5	Y5	Z5	X6	Y6	Z6	X7	Y7	Z7	X8	Y8	Z8	X9	Y9	Z9	X10	Y10	Z10	X11	Y11	Z11	X12	Y12	Z12	X13	Y13	Z13	X14	Y14	Z14	X15	Y15	Z15	X16	Y16	Z16	X17	Y17	Z17	X18	Y18	Z18	X19	Y19	Z19	X20	Y20	Z20	X21	Y21	Z21	X22	Y22	Z22	X23	Y23	Z23	X24	Y24	Z24	X25	Y25	Z25	X26	Y26	Z26	X27	Y27	Z27	X28	Y28	Z28	X29	Y29	Z29	X30	Y30	Z30	X31	Y31	Z31	X32	Y32	Z32	X33	Y33	Z33	

53	47.499142857143	836.156690345835	1014.574565397641	508.611531896707	1025.299403113184	1432.076749982324	312.281521173322	1141.319559313396	1351.383876526112	460.066701933850	1088.008594526257	1433.285810844674	641.533104659146	1056.344371949219	1490.981134077823	464.382481664603	1067.702636357953	944.287776831076	610.495810007701	1034.577916315453	960.137829825892	336.754174630297	1096.115757467635	743.089583069410	586.683659622842	1008.250378897159	636.837223732155	643.170424109020	1085.038954190355	583.194447355267	565.050539132357	1080.854749994120	496.974333095962	570.704266616498	1127.939917972196	801.979969435995	355.239619835668	1093.107541902931	674.239713429885	271.216007477883	1210.205097078940	623.635234945853	317.947918226889	1234.605049881087	536.406107273784	305.910844621867	1178.817968687913	460.254196520296	306.211507461311	1042.379763019251	394.508972935267	271.568263944537	1058.130106122781	265.465024125611	325.637023334806	1054.731441155551	408.775743560640	574.020971617783	980.929593697892	301.721026091407	626.538324344241	1033.566287861636	210.265621795877	563.947367382353	907.918550166748	42.423786587533	517.623060258331	1078.270412103197	98.438222713318	561.636695307241	988.851886324659	36.029884814946	594.866730031766	1197.001239742547	47.646654016251	591.093260431418	886.806686460123	168.948935925629	380.683793718437	943.392317346097	133.487109867045	294.885178136895	1046.925587908929	159.855964540972	306.543095289303	1139.540932189968	63.038333326562	270.047992021496	903.283377363528	1097.674167618425	216.043151390186	1022.368126307886	863.969370138069	208.941010326336	1114.473706280369	1086.289109643737	769.354582627442	1278.662921293686	886.078713127565	730.174379715001	
54	47.510857142857	834.840645560173	1015.460140437695	509.587673768399	1024.550767002368	1432.049561335231	313.105979453192	1140.987063316178	1351.219228494869	460.433568890315	1088.701532764100	1433.367498304835	642.044522416338	1056.340694536266	1490.990688660480	465.045371016679	1066.220494730850	944.319292421747	611.228391902336	1033.100603816579	960.344187492267	337.531725317880	1091.982376784582	742.433469707850	586.966109426643	1003.104679443608	636.982146910263	643.814575147331	1078.944383419572	582.514775184456	565.600809080894	1073.792010474325	496.657413752046	571.272515806062	1126.904877851466	804.233086365447	355.886667948272	1093.678352929343	676.057327068552	271.551431066927	1211.165354081126	626.960355696080	318.374504712394	1237.278188037227	541.162826695136	306.273591259667	1185.209508180848	463.626649883787	306.048347227085	1052.986468925222	390.247410416570	270.706640658950	1076.653875535084	261.692716549363	323.698493391229	1047.414799621579	408.606509897578	574.367004333733	973.258986169278	301.803320966951	626.798237436180	1025.685134942411	210.215930638990	564.148226398833	899.683566217640	42.427323798621	517.668725900113	1070.071876526319	98.425580038738	561.713347915812	980.598361338373	36.044403904157	594.896041529582	1188.736570810316	47.557770710866	591.184132436542	911.675225102782	154.681565929549	378.093205670127	970.102715768461	123.110623873273	292.053598987943	1071.982543421804	155.387009338103	303.807699605033	1170.125939633072	64.374921416530	266.733169915874	896.813656221234	1099.333310948601	218.982243566666	999.365953649492	857.583400597675	211.710956688398	1125.037328709644	1087.582361990635	769.548502925761	1299.407108050087	897.436717501143	725.636141807441	
55	47.522571428571	833.621336397520	1016.206647473751	510.369848888183	1023.857589753254	1431.929518742122	313.814075487118	1140.680412857276	1350.959386475476	460.704256590465	1089.341138960939	1433.322282050920	642.448991565610	1056.298432766457	1490.892199297928	465.620752333350	1064.810078716317	944.239516264303	611.871867303520	1031.778686072017	960.378928401385	338.192649313291	1087.970522473124	741.716963845199	587.072600519340	998.125255818437	637.053459271876	644.336018502447	1072.971985738099	581.789537883142	566.007571838376	1066.865651407056	496.293084571503	571.696101762901	1125.623966175662	805.752960197345	356.555742664333	1093.741032556523	677.186386558574	271.997871460118	1211.262656813871	629.234336018174	319.293803173476	1238.897421789435	545.078103490266	307.176258844730	1190.678304294015	466.499347219851	306.198787057216	1063.444158062974	385.553139323829	269.667203839493	1095.112845315944	257.964251561614	321.600973297024	1040.212980151181	408.402443163914	574.599551812889	965.731084687176	301.844688943581	626.994796871904	1017.860539776296	210.121638508647	564.258580829696	891.460897820136	42.413978347381	517.715836628106	1061.869746559431	98.394061039019	561.752262691151	972.347903627667	36.058569683506	594.916502104394	1180.474199358834	47.456668230826	591.255968741900	937.233535510486	140.568586917048	374.789896960680	997.542747541948	113.149936420113	288.690997765575	1097.311646238884	151.310050159671	300.869135221293	1200.808881949099	66.498808067368	263.504505206952	890.825220138653	1100.974453872732	221.551881979018	976.547254490938	852.510389856015	214.547176377937	1135.123201084242	1089.092492164934	769.602502322426	1319.238406658214	909.931498189471	720.621509171352	
56	47.534285714286	832.514129616797	1016.804487801773	510.969173348550	1023.248900255759	1431.719507421969	314.390952434587	1140.410532242172	1350.598719983555	460.876590501213	1089.925902559818	1433.145260757689	642.742283401446	1056.243449851872	1490.687109926998	466.098792470997	1063.480919755237	944.063966426334	612.426582244062	1030.609728687090	960.240677031997	338.736019949287	1084.112434016900	740.946887299968	587.064246550998	993.297362573375	637.060128016344	644.752267879556	1067.128849437670	581.023045192189	566.312792192798	1060.075522092710	495.883577761484	572.006567028067	1124.118976970655	806.534588949902	357.263294826623	1093.308812194616	677.636602130430	272.534959598141	1210.536727612090	630.455738659934	320.675095972922	1239.520498058444	548.141414729297	308.590417483749	1195.238580486899	468.885054188451	306.667828929726	1073.755164625796	380.584921126972	268.448877582167	1113.351964991325	254.484869038908	319.443853784295	1033.122074480150	408.173851377005	574.748968693609	958.321862511542	301.854649398128	627.141155661444	1010.081683655200	209.989938561335	564.299638157486	883.243981111881	42.385520179005	517.766842641506	1053.662402689080	98.347442729709	561.762132173883	964.098683688641	36.071651151812	594.931247067449	1172.214408102124	47.346444104973	591.312341189221	963.251024592648	126.995188289565	370.851098520055	1025.497198418920	103.937315095660	284.929617394075	1122.683961135535	147.886033230425	297.890001485130	1231.298041939993	69.633399808541	260.639666537233	885.299896773610	1102.582993666951	223.771294915056	954.157473887197	848.754957379086	217.419319893273	1144.674196592831	1090.760863221723	769.499140615850	1338.003753673347	923.520323941880	715.193183339693	
